<?xml version="1.0" standalone="no"?>
<!DOCTYPE svg PUBLIC "-//W3C//DTD SVG 20010904//EN"
 "http://www.w3.org/TR/2001/REC-SVG-20010904/DTD/svg10.dtd">
<svg version="1.0" xmlns="http://www.w3.org/2000/svg"
 width="238.000000pt" height="230.000000pt" viewBox="0 0 238.000000 230.000000"
 preserveAspectRatio="xMidYMid meet">

<g transform="translate(0.000000,230.000000) scale(0.100000,-0.100000)"
fill="#000000" stroke="none">
<path d="M1048 2192 c-132 -87 -130 -298 5 -389 151 -102 366 7 367 187 0 75
-18 121 -70 173 l-47 47 -114 0 c-92 0 -119 -4 -141 -18z"/>
<path d="M620 2148 c-119 -61 -127 -209 -16 -292 39 -30 143 -30 182 0 82 61
102 167 47 243 -24 33 -98 71 -138 71 -17 0 -51 -10 -75 -22z"/>
<path d="M1605 2156 c-67 -30 -111 -111 -100 -184 8 -53 60 -116 112 -133 77
-25 172 12 208 81 23 45 19 130 -8 171 -43 65 -143 96 -212 65z"/>
<path d="M268 2073 c-34 -37 -42 -66 -28 -107 14 -44 52 -69 104 -69 75 0 118
81 81 153 -19 37 -43 50 -92 50 -30 0 -45 -7 -65 -27z"/>
<path d="M1959 2071 c-39 -40 -41 -106 -4 -144 68 -67 175 -24 175 70 0 62
-40 103 -100 103 -33 0 -48 -6 -71 -29z"/>
<path d="M264 1796 c-76 -33 -115 -145 -81 -228 37 -89 173 -124 250 -65 56
43 72 72 72 137 0 44 -6 65 -25 93 -48 69 -139 96 -216 63z"/>
<path d="M1946 1787 c-46 -26 -86 -93 -86 -145 0 -124 133 -206 244 -152 62
29 87 67 92 138 4 47 1 64 -18 97 -47 80 -152 108 -232 62z"/>
<path d="M715 1668 c-53 -29 -72 -103 -39 -153 35 -53 135 -53 170 1 19 28 21
83 5 113 -23 42 -94 63 -136 39z"/>
<path d="M1112 1663 c-103 -51 -128 -180 -51 -268 56 -63 156 -72 224 -21 47
36 65 74 65 139 0 68 -28 113 -90 145 -52 26 -102 28 -148 5z"/>
<path d="M1563 1670 c-27 -11 -63 -66 -63 -95 0 -38 37 -83 78 -96 106 -31
176 89 98 167 -35 35 -68 42 -113 24z"/>
<path d="M266 1378 c-54 -15 -141 -101 -155 -153 -30 -110 18 -232 110 -281
117 -60 256 -21 320 91 49 86 39 196 -26 273 -55 65 -161 95 -249 70z"/>
<path d="M1970 1381 c-110 -36 -173 -118 -172 -225 0 -71 11 -105 53 -157 41
-51 108 -82 179 -82 247 0 326 332 106 445 -43 22 -128 32 -166 19z"/>
<path d="M755 1306 c-124 -55 -127 -241 -5 -304 89 -46 190 -9 232 86 61 137
-88 280 -227 218z"/>
<path d="M1453 1295 c-96 -58 -110 -189 -27 -267 56 -52 120 -61 191 -27 92
44 122 171 60 252 -53 69 -148 87 -224 42z"/>
<path d="M1144 1246 c-39 -17 -64 -52 -64 -89 0 -92 99 -140 169 -81 59 50 46
140 -24 170 -41 17 -42 17 -81 0z"/>
<path d="M1125 955 c-102 -36 -143 -166 -81 -257 48 -72 155 -95 227 -51 70
44 102 150 66 219 -22 42 -69 83 -108 94 -43 13 -55 12 -104 -5z"/>
<path d="M254 811 c-116 -71 -110 -243 12 -301 88 -43 185 -5 226 88 35 78 -1
180 -77 216 -46 22 -123 20 -161 -3z"/>
<path d="M689 801 c-22 -23 -29 -39 -29 -70 0 -91 109 -139 173 -76 29 30 36
58 25 102 -19 74 -114 98 -169 44z"/>
<path d="M1538 803 c-35 -37 -43 -72 -25 -116 18 -43 47 -60 101 -60 75 0 118
81 81 153 -19 37 -43 50 -92 50 -30 0 -46 -7 -65 -27z"/>
<path d="M1944 811 c-58 -36 -93 -116 -80 -186 8 -43 59 -103 103 -121 145
-61 288 103 210 241 -33 59 -78 85 -146 85 -37 0 -66 -6 -87 -19z"/>
<path d="M1085 516 c-94 -43 -142 -130 -132 -238 6 -72 39 -126 105 -172 109
-77 280 -27 338 97 93 202 -110 407 -311 313z"/>
<path d="M637 466 c-49 -18 -64 -32 -89 -80 -60 -118 17 -250 147 -250 131 0
207 132 146 251 -36 72 -127 107 -204 79z"/>
<path d="M1617 466 c-87 -32 -131 -118 -106 -209 38 -142 235 -167 307 -39 78
139 -55 302 -201 248z"/>
<path d="M293 395 c-31 -13 -63 -59 -63 -90 0 -57 73 -113 130 -100 93 20 109
149 25 190 -40 18 -51 18 -92 0z"/>
<path d="M1990 399 c-56 -22 -79 -101 -44 -154 35 -53 135 -53 170 1 35 53 10
133 -48 153 -37 13 -45 13 -78 0z"/>
</g>
</svg>
